<svg width="388" height="388" viewBox="0 0 388 388" fill="none" xmlns="http://www.w3.org/2000/svg">
<path d="M291 161.667H270.63C264.582 138.241 252.084 116.982 234.556 100.304C217.029 83.627 195.176 72.2002 171.479 67.3225C147.782 62.4448 123.192 64.3117 100.503 72.7111C77.8136 81.1105 57.9355 95.7056 43.127 114.838C28.3186 133.97 19.1735 156.873 16.731 180.943C14.2885 205.013 18.6465 229.286 29.3098 251.003C39.9731 272.72 56.5141 291.011 77.0533 303.797C97.5924 316.583 121.306 323.351 145.5 323.333H291C312.438 323.333 332.999 314.817 348.158 299.658C363.317 284.499 371.833 263.938 371.833 242.5C371.833 221.062 363.317 200.501 348.158 185.342C332.999 170.183 312.438 161.667 291 161.667Z" fill="#F5F5F5" stroke="#F3F3F3" style="fill:#F5F5F5;fill:color(display-p3 0.9608 0.9608 0.9608);fill-opacity:1;stroke:#F3F3F3;stroke:color(display-p3 0.9511 0.9511 0.9511);stroke-opacity:1;" stroke-width="4" stroke-linecap="round" stroke-linejoin="round"/>
</svg>
