<svg width="313" height="313" viewBox="0 0 313 313" fill="none" xmlns="http://www.w3.org/2000/svg">
<path d="M156.5 221.708C192.514 221.708 221.708 192.514 221.708 156.5C221.708 120.486 192.514 91.2917 156.5 91.2917C120.486 91.2917 91.2917 120.486 91.2917 156.5C91.2917 192.514 120.486 221.708 156.5 221.708Z" fill="#FFE206" style="fill:#FFE206;fill:color(display-p3 1.0000 0.8861 0.0240);fill-opacity:1;"/>
<path d="M156.5 13.0417V39.125M156.5 273.875V299.958M55.0358 55.0358L73.555 73.555M239.445 239.445L257.964 257.964M13.0417 156.5H39.125M273.875 156.5H299.958M55.0358 257.964L73.555 239.445M239.445 73.555L257.964 55.0358M221.708 156.5C221.708 192.514 192.514 221.708 156.5 221.708C120.486 221.708 91.2917 192.514 91.2917 156.5C91.2917 120.486 120.486 91.2917 156.5 91.2917C192.514 91.2917 221.708 120.486 221.708 156.5Z" stroke="#FFE206" style="stroke:#FFE206;stroke:color(display-p3 1.0000 0.8861 0.0240);stroke-opacity:1;" stroke-width="2.5" stroke-linecap="round" stroke-linejoin="round"/>
</svg>
